{
  "source": "C:\\Users\\Peter\\Desktop\\stuff\\MIUN\\quantitative_research\\video_compression\\videos\\BVI-HD\\BVI-HD_CDVL_videos\\ORIG\\CalmingWater_1920x1080_60fps.mp4",
  "output": "C:\\Users\\Peter\\Desktop\\stuff\\MIUN\\quantitative_research\\video_compression\\compressed_videos\\BVI-HD\\vp9\\3\\CalmingWater_1920x1080_60fps_vp9.webm",
  "codec": "vp9",
  "ok": "Input #0, mov,mp4,m4a,3gp,3g2,mj2, from 'C:\\Users\\Peter\\Desktop\\stuff\\MIUN\\quantitative_research\\video_compression\\videos\\BVI-HD\\BVI-HD_CDVL_videos\\ORIG\\CalmingWater_1920x1080_60fps.mp4':\n  Metadata:\n    major_brand     : isom\n    minor_version   : 512\n    compatible_brands: isomiso2avc1mp41\n    encoder         : Lavf54.28.101\n  Duration: 00:00:05.00, start: 0.000000, bitrate: 623787 kb/s\n  Stream #0:0[0x1](und): Video: h264 (High 4:4:4 Predictive) (avc1 / 0x31637661), yuv420p(progressive), 1920x1080, 623782 kb/s, 60 fps, 60 tbr, 60 tbn (default)\n    Metadata:\n      handler_name    : VideoHandler\n      vendor_id       : [0][0][0][0]\n[out#0/webm @ 00000278537a9040] Codec AVOption b:a (set bitrate (in bits/s)) has not been used for any stream. The most likely reason is either wrong type (e.g. a video option with no video streams) or that it is a private option of some decoder which was not actually used for any stream.\nStream mapping:\n  Stream #0:0 -> #0:0 (h264 (native) -> vp9 (libvpx-vp9))\nPress [q] to stop, [?] for help\n[libvpx-vp9 @ 0000027854330640] v1.15.2-100-g40561f514\nOutput #0, webm, to 'C:\\Users\\Peter\\Desktop\\stuff\\MIUN\\quantitative_research\\video_compression\\compressed_videos\\BVI-HD\\vp9\\3\\CalmingWater_1920x1080_60fps_vp9.webm':\n  Metadata:\n    major_brand     : isom\n    minor_version   : 512\n    compatible_brands: isomiso2avc1mp41\n    encoder         : Lavf62.3.100\n  Stream #0:0(und): Video: vp9, yuv420p(tv, progressive), 1920x1080, q=2-31, 3000 kb/s, 60 fps, 1k tbn (default)\n    Metadata:\n      encoder         : Lavc62.11.100 libvpx-vp9\n      handler_name    : VideoHandler\n      vendor_id       : [0][0][0][0]\n    Side data:\n      cpb: bitrate max/min/avg: 0/0/0 buffer size: 3000000 vbv_delay: N/A\nframe=    0 fps=0.0 q=0.0 size=       0KiB time=N/A bitrate=N/A speed=N/A elapsed=0:00:00.52    \nframe=    3 fps=2.5 q=57.0 size=       1KiB time=00:00:00.05 bitrate= 101.3kbits/s speed=0.0413x elapsed=0:00:01.20    \nframe=    7 fps=4.0 q=63.0 size=       1KiB time=00:00:00.11 bitrate=  43.4kbits/s speed=0.0664x elapsed=0:00:01.75    \nframe=   11 fps=4.8 q=63.0 size=       1KiB time=00:00:00.18 bitrate=  27.6kbits/s speed=0.0806x elapsed=0:00:02.27    \nframe=   14 fps=5.0 q=63.0 size=       1KiB time=00:00:00.23 bitrate=  21.7kbits/s speed=0.0832x elapsed=0:00:02.80    \nframe=   18 fps=5.4 q=63.0 size=       1KiB time=00:00:00.30 bitrate=  16.9kbits/s speed=0.0903x elapsed=0:00:03.32    \nframe=   22 fps=5.7 q=63.0 size=       1KiB time=00:00:00.36 bitrate=  13.8kbits/s speed=0.0951x elapsed=0:00:03.85    \nframe=   24 fps=5.5 q=63.0 size=       1KiB time=00:00:00.40 bitrate=  12.7kbits/s speed=0.0911x elapsed=0:00:04.38    \nframe=   28 fps=5.7 q=63.0 size=       1KiB time=00:00:00.46 bitrate=  10.9kbits/s speed=0.0953x elapsed=0:00:04.89    \nframe=   32 fps=5.9 q=63.0 size=       1KiB time=00:00:00.53 bitrate=   9.5kbits/s speed=0.0984x elapsed=0:00:05.41    \nframe=   36 fps=6.0 q=63.0 size=       1KiB time=00:00:00.60 bitrate=   8.4kbits/s speed= 0.1x elapsed=0:00:05.97    \nframe=   39 fps=6.0 q=63.0 size=       1KiB time=00:00:00.65 bitrate=   7.8kbits/s speed= 0.1x elapsed=0:00:06.49    \nframe=   42 fps=6.0 q=63.0 size=       1KiB time=00:00:00.70 bitrate=   7.2kbits/s speed=0.0992x elapsed=0:00:07.05    \nframe=   45 fps=5.9 q=63.0 size=       1KiB time=00:00:00.75 bitrate=   6.8kbits/s speed=0.0988x elapsed=0:00:07.59    \nframe=   48 fps=5.9 q=63.0 size=       1KiB time=00:00:00.80 bitrate=   6.3kbits/s speed=0.0987x elapsed=0:00:08.10    \nframe=   52 fps=6.0 q=63.0 size=       1KiB time=00:00:00.86 bitrate=   5.8kbits/s speed= 0.1x elapsed=0:00:08.64    \nframe=   55 fps=6.0 q=54.0 size=       1KiB time=00:00:00.91 bitrate=   5.5kbits/s speed=0.0997x elapsed=0:00:09.19    \nframe=   59 fps=6.1 q=63.0 size=       1KiB time=00:00:00.98 bitrate=   5.1kbits/s speed=0.101x elapsed=0:00:09.72    \nframe=   62 fps=6.1 q=63.0 size=       1KiB time=00:00:01.03 bitrate=   4.9kbits/s speed=0.101x elapsed=0:00:10.24    \nframe=   65 fps=6.0 q=63.0 size=       1KiB time=00:00:01.08 bitrate=   4.7kbits/s speed= 0.1x elapsed=0:00:10.78    \nframe=   68 fps=6.0 q=63.0 size=       1KiB time=00:00:01.13 bitrate=   4.5kbits/s speed= 0.1x elapsed=0:00:11.31    \nframe=   72 fps=6.1 q=63.0 size=       1KiB time=00:00:01.20 bitrate=   4.2kbits/s speed=0.101x elapsed=0:00:11.84    \nframe=   75 fps=6.1 q=63.0 size=       1KiB time=00:00:01.25 bitrate=   4.1kbits/s speed=0.101x elapsed=0:00:12.37    \nframe=   78 fps=6.0 q=63.0 size=       1KiB time=00:00:01.30 bitrate=   3.9kbits/s speed=0.101x elapsed=0:00:12.92    \nframe=   82 fps=6.1 q=63.0 size=       1KiB time=00:00:01.36 bitrate=   3.7kbits/s speed=0.102x elapsed=0:00:13.44    \nframe=   85 fps=6.1 q=53.0 size=       1KiB time=00:00:01.41 bitrate=   3.6kbits/s speed=0.101x elapsed=0:00:13.97    \nframe=   89 fps=6.1 q=63.0 size=       1KiB time=00:00:01.48 bitrate=   3.4kbits/s speed=0.102x elapsed=0:00:14.49    \nframe=   92 fps=6.1 q=63.0 size=       1KiB time=00:00:01.53 bitrate=   3.3kbits/s speed=0.102x elapsed=0:00:15.03    \nframe=   96 fps=6.2 q=63.0 size=       1KiB time=00:00:01.60 bitrate=   3.2kbits/s speed=0.103x elapsed=0:00:15.57    \nframe=   99 fps=6.1 q=63.0 size=       1KiB time=00:00:01.65 bitrate=   3.1kbits/s speed=0.102x elapsed=0:00:16.12    \nframe=  102 fps=6.1 q=63.0 size=       1KiB time=00:00:01.70 bitrate=   3.0kbits/s speed=0.102x elapsed=0:00:16.64    \nframe=  106 fps=6.2 q=63.0 size=       1KiB time=00:00:01.76 bitrate=   2.9kbits/s speed=0.103x elapsed=0:00:17.16    \nframe=  109 fps=6.2 q=53.0 size=       1KiB time=00:00:01.81 bitrate=   2.8kbits/s speed=0.103x elapsed=0:00:17.69    \nframe=  113 fps=6.2 q=63.0 size=       1KiB time=00:00:01.88 bitrate=   2.7kbits/s speed=0.103x elapsed=0:00:18.23    \nframe=  116 fps=6.2 q=63.0 size=       1KiB time=00:00:01.93 bitrate=   2.6kbits/s speed=0.103x elapsed=0:00:18.77    \nframe=  120 fps=6.2 q=63.0 size=       1KiB time=00:00:02.00 bitrate=   2.5kbits/s speed=0.104x elapsed=0:00:19.31    \nframe=  123 fps=6.2 q=63.0 size=       1KiB time=00:00:02.05 bitrate=   2.5kbits/s speed=0.103x elapsed=0:00:19.87    \nframe=  126 fps=6.2 q=63.0 size=       1KiB time=00:00:02.10 bitrate=   2.4kbits/s speed=0.103x elapsed=0:00:20.40    \nframe=  129 fps=6.2 q=52.0 size=       1KiB time=00:00:02.15 bitrate=   2.4kbits/s speed=0.103x elapsed=0:00:20.97    \nframe=  133 fps=6.2 q=63.0 size=    1024KiB time=00:00:02.21 bitrate=3784.3kbits/s speed=0.103x elapsed=0:00:21.55    \nframe=  135 fps=6.1 q=51.0 size=    1024KiB time=00:00:02.23 bitrate=3756.1kbits/s speed= 0.1x elapsed=0:00:22.22    \nframe=  137 fps=6.0 q=63.0 size=    1024KiB time=00:00:02.26 bitrate=3700.9kbits/s speed=0.0995x elapsed=0:00:22.79    \nframe=  139 fps=5.9 q=63.0 size=    1024KiB time=00:00:02.30 bitrate=3647.2kbits/s speed=0.0983x elapsed=0:00:23.40    \nframe=  141 fps=5.9 q=63.0 size=    1024KiB time=00:00:02.33 bitrate=3595.1kbits/s speed=0.0973x elapsed=0:00:23.98    \nframe=  142 fps=5.8 q=63.0 size=    1024KiB time=00:00:02.36 bitrate=3544.5kbits/s speed=0.0963x elapsed=0:00:24.56    \nframe=  144 fps=5.7 q=63.0 size=    1024KiB time=00:00:02.40 bitrate=3495.3kbits/s speed=0.0955x elapsed=0:00:25.11    \nframe=  146 fps=5.7 q=51.0 size=    1024KiB time=00:00:02.43 bitrate=3447.4kbits/s speed=0.0946x elapsed=0:00:25.71    \nframe=  149 fps=5.7 q=63.0 size=    1024KiB time=00:00:02.48 bitrate=3378.0kbits/s speed=0.0945x elapsed=0:00:26.28    \nframe=  152 fps=5.7 q=63.0 size=    1024KiB time=00:00:02.53 bitrate=3311.3kbits/s speed=0.0946x elapsed=0:00:26.79    \nframe=  154 fps=5.6 q=63.0 size=    1024KiB time=00:00:02.56 bitrate=3268.3kbits/s speed=0.0939x elapsed=0:00:27.33    \nframe=  157 fps=5.6 q=63.0 size=    1024KiB time=00:00:02.61 bitrate=3205.8kbits/s speed=0.0939x elapsed=0:00:27.86    \nframe=  159 fps=5.6 q=63.0 size=    1024KiB time=00:00:02.65 bitrate=3165.5kbits/s speed=0.0933x elapsed=0:00:28.40    \nframe=  161 fps=5.6 q=63.0 size=    1024KiB time=00:00:02.68 bitrate=3126.2kbits/s speed=0.0927x elapsed=0:00:28.93    \nframe=  163 fps=5.5 q=63.0 size=    1024KiB time=00:00:02.71 bitrate=3087.8kbits/s speed=0.092x elapsed=0:00:29.52    \nframe=  164 fps=5.4 q=53.0 size=    1024KiB time=00:00:02.73 bitrate=3069.0kbits/s speed=0.0908x elapsed=0:00:30.09    \nframe=  167 fps=5.5 q=63.0 size=    1024KiB time=00:00:02.78 bitrate=3013.9kbits/s speed=0.0909x elapsed=0:00:30.60    \nframe=  169 fps=5.4 q=63.0 size=    1024KiB time=00:00:02.81 bitrate=2978.2kbits/s speed=0.0904x elapsed=0:00:31.16    \nframe=  171 fps=5.4 q=63.0 size=    1024KiB time=00:00:02.85 bitrate=2943.4kbits/s speed=0.0898x elapsed=0:00:31.73    \nframe=  174 fps=5.4 q=63.0 size=    1024KiB time=00:00:02.90 bitrate=2892.6kbits/s speed=0.0898x elapsed=0:00:32.29    \nframe=  177 fps=5.4 q=63.0 size=    1024KiB time=00:00:02.95 bitrate=2843.6kbits/s speed=0.0898x elapsed=0:00:32.83    \nframe=  179 fps=5.4 q=63.0 size=    1024KiB time=00:00:02.98 bitrate=2811.8kbits/s speed=0.0894x elapsed=0:00:33.37    \nframe=  181 fps=5.3 q=63.0 size=    1024KiB time=00:00:03.01 bitrate=2780.8kbits/s speed=0.0888x elapsed=0:00:33.96    \nframe=  183 fps=5.3 q=63.0 size=    1024KiB time=00:00:03.05 bitrate=2750.4kbits/s speed=0.0884x elapsed=0:00:34.51    \nframe=  186 fps=5.3 q=63.0 size=    1024KiB time=00:00:03.10 bitrate=2706.0kbits/s speed=0.0885x elapsed=0:00:35.04    \nframe=  189 fps=5.3 q=63.0 size=    1024KiB time=00:00:03.15 bitrate=2663.1kbits/s speed=0.0884x elapsed=0:00:35.61    \nframe=  192 fps=5.3 q=63.0 size=    1024KiB time=00:00:03.20 bitrate=2621.4kbits/s speed=0.0884x elapsed=0:00:36.18    \nframe=  194 fps=5.3 q=50.0 size=    1024KiB time=00:00:03.23 bitrate=2594.4kbits/s speed=0.088x elapsed=0:00:36.75    \nframe=  196 fps=5.3 q=63.0 size=    1024KiB time=00:00:03.26 bitrate=2567.9kbits/s speed=0.0876x elapsed=0:00:37.29    \nframe=  198 fps=5.2 q=63.0 size=    1024KiB time=00:00:03.30 bitrate=2542.0kbits/s speed=0.0872x elapsed=0:00:37.84    \nframe=  200 fps=5.2 q=63.0 size=    1024KiB time=00:00:03.33 bitrate=2516.6kbits/s speed=0.0868x elapsed=0:00:38.39    \nframe=  203 fps=5.2 q=63.0 size=    1024KiB time=00:00:03.38 bitrate=2479.4kbits/s speed=0.087x elapsed=0:00:38.89    \nframe=  205 fps=5.2 q=63.0 size=    1024KiB time=00:00:03.41 bitrate=2455.2kbits/s speed=0.0866x elapsed=0:00:39.43    \nframe=  208 fps=5.2 q=63.0 size=    1024KiB time=00:00:03.46 bitrate=2419.8kbits/s speed=0.0867x elapsed=0:00:39.98    \nframe=  210 fps=5.2 q=63.0 size=    1024KiB time=00:00:03.50 bitrate=2396.7kbits/s speed=0.0863x elapsed=0:00:40.57    \nframe=  212 fps=5.2 q=63.0 size=    1024KiB time=00:00:03.53 bitrate=2374.1kbits/s speed=0.0859x elapsed=0:00:41.11    \nframe=  214 fps=5.1 q=63.0 size=    1024KiB time=00:00:03.56 bitrate=2351.9kbits/s speed=0.0856x elapsed=0:00:41.64    \nframe=  217 fps=5.1 q=63.0 size=    1024KiB time=00:00:03.61 bitrate=2319.4kbits/s speed=0.0857x elapsed=0:00:42.20    \nframe=  219 fps=5.1 q=63.0 size=    1024KiB time=00:00:03.65 bitrate=2298.2kbits/s speed=0.0853x elapsed=0:00:42.77    \nframe=  222 fps=5.1 q=63.0 size=    1024KiB time=00:00:03.68 bitrate=2277.5kbits/s speed=0.085x elapsed=0:00:43.32    \nframe=  223 fps=5.1 q=63.0 size=    1024KiB time=00:00:03.71 bitrate=2257.0kbits/s speed=0.0846x elapsed=0:00:43.91    \nframe=  226 fps=5.1 q=63.0 size=    1024KiB time=00:00:03.76 bitrate=2227.1kbits/s speed=0.0847x elapsed=0:00:44.47    \nframe=  228 fps=5.1 q=63.0 size=    1024KiB time=00:00:03.80 bitrate=2207.5kbits/s speed=0.0844x elapsed=0:00:45.03    \nframe=  230 fps=5.0 q=49.0 size=    1024KiB time=00:00:03.83 bitrate=2188.3kbits/s speed=0.0842x elapsed=0:00:45.55    \nframe=  233 fps=5.1 q=63.0 size=    1024KiB time=00:00:03.88 bitrate=2160.2kbits/s speed=0.0842x elapsed=0:00:46.10    \nframe=  236 fps=5.1 q=63.0 size=    1024KiB time=00:00:03.93 bitrate=2132.7kbits/s speed=0.0843x elapsed=0:00:46.63    \nframe=  238 fps=5.0 q=63.0 size=    1024KiB time=00:00:03.96 bitrate=2114.8kbits/s speed=0.0841x elapsed=0:00:47.17    \nframe=  240 fps=5.0 q=63.0 size=    1024KiB time=00:00:04.00 bitrate=2097.2kbits/s speed=0.0838x elapsed=0:00:47.74    \nframe=  242 fps=5.0 q=50.0 size=    1024KiB time=00:00:04.03 bitrate=2079.8kbits/s speed=0.0835x elapsed=0:00:48.28    \nframe=  246 fps=5.0 q=63.0 size=    1024KiB time=00:00:04.10 bitrate=2046.0kbits/s speed=0.084x elapsed=0:00:48.82    \nframe=  248 fps=5.0 q=63.0 size=    1024KiB time=00:00:04.13 bitrate=2029.5kbits/s speed=0.0837x elapsed=0:00:49.36    \nframe=  251 fps=5.0 q=63.0 size=    1024KiB time=00:00:04.18 bitrate=2005.2kbits/s speed=0.0838x elapsed=0:00:49.89    \nframe=  253 fps=5.0 q=63.0 size=    1024KiB time=00:00:04.21 bitrate=1989.4kbits/s speed=0.0836x elapsed=0:00:50.42    \nframe=  256 fps=5.0 q=63.0 size=    1024KiB time=00:00:04.25 bitrate=1973.8kbits/s speed=0.0833x elapsed=0:00:51.00    \nframe=  258 fps=5.0 q=62.0 size=    1792KiB time=00:00:04.30 bitrate=3414.0kbits/s speed=0.0834x elapsed=0:00:51.56    \nframe=  261 fps=5.0 q=63.0 size=    1792KiB time=00:00:04.35 bitrate=3374.7kbits/s speed=0.0835x elapsed=0:00:52.12    \nframe=  264 fps=5.0 q=62.0 size=    1792KiB time=00:00:04.40 bitrate=3336.4kbits/s speed=0.0836x elapsed=0:00:52.65    \nframe=  268 fps=5.0 q=62.0 size=    1792KiB time=00:00:04.46 bitrate=3286.6kbits/s speed=0.0839x elapsed=0:00:53.22    \nframe=  269 fps=5.0 q=47.0 size=    1792KiB time=00:00:04.48 bitrate=3274.4kbits/s speed=0.0833x elapsed=0:00:53.84    \nframe=  272 fps=5.0 q=62.0 size=    1792KiB time=00:00:04.53 bitrate=3238.2kbits/s speed=0.0833x elapsed=0:00:54.44    \nframe=  275 fps=5.0 q=62.0 size=    1792KiB time=00:00:04.58 bitrate=3202.9kbits/s speed=0.0833x elapsed=0:00:55.02    \nframe=  276 fps=5.0 q=62.0 size=    1792KiB time=00:00:04.60 bitrate=3191.3kbits/s speed=0.0827x elapsed=0:00:55.59    \nframe=  276 fps=4.9 q=62.0 size=    1792KiB time=00:00:04.60 bitrate=3191.3kbits/s speed=0.0819x elapsed=0:00:56.14    \nframe=  276 fps=4.9 q=62.0 size=    1792KiB time=00:00:04.60 bitrate=3191.3kbits/s speed=0.0812x elapsed=0:00:56.67    \nframe=  276 fps=4.8 q=62.0 size=    1792KiB time=00:00:04.60 bitrate=3191.3kbits/s speed=0.0804x elapsed=0:00:57.20    \nframe=  276 fps=4.8 q=62.0 size=    1792KiB time=00:00:04.60 bitrate=3191.3kbits/s speed=0.0797x elapsed=0:00:57.73    \nframe=  276 fps=4.7 q=62.0 size=    1792KiB time=00:00:04.60 bitrate=3191.3kbits/s speed=0.079x elapsed=0:00:58.25    \nframe=  276 fps=4.7 q=62.0 size=    1792KiB time=00:00:04.60 bitrate=3191.3kbits/s speed=0.0783x elapsed=0:00:58.75    \nframe=  276 fps=4.7 q=62.0 size=    1792KiB time=00:00:04.60 bitrate=3191.3kbits/s speed=0.0776x elapsed=0:00:59.28    \nframe=  276 fps=4.6 q=62.0 size=    1792KiB time=00:00:04.60 bitrate=3191.3kbits/s speed=0.0769x elapsed=0:00:59.80    \nframe=  276 fps=4.6 q=62.0 size=    1792KiB time=00:00:04.60 bitrate=3191.3kbits/s speed=0.0762x elapsed=0:01:00.37    \n[out#0/webm @ 00000278537a9040] video:2104KiB audio:0KiB subtitle:0KiB other streams:0KiB global headers:0KiB muxing overhead: 0.132744%\nframe=  300 fps=4.9 q=62.0 Lsize=    2107KiB time=00:00:05.00 bitrate=3451.8kbits/s speed=0.0825x elapsed=0:01:00.62    \n",
  "seconds": 60.93908214569092,
  "probe_out": {}
}